<svg xmlns="http://www.w3.org/2000/svg" width="512" height="512" viewBox="0 0 512 512" version="1.1">
	<path d="M 235 0.689 C 196.678 3.582, 154.023 17.829, 120.385 38.970 C 88.073 59.279, 58.113 89.418, 38.074 121.772 C 11.672 164.401, -1.313 213.500, 0.326 264.500 C 1.641 305.384, 11.615 342.250, 31.020 377.944 C 49.656 412.223, 78.143 444.024, 110.106 466.227 C 187.159 519.752, 286.638 526.865, 370.402 484.839 C 410.192 464.876, 444.669 434.274, 469.640 396.757 C 485.273 373.271, 500.239 338.230, 505.842 312 C 508.416 299.951, 511 282.475, 511 277.122 C 511 274.855, 511.450 273, 512 273 C 512.629 273, 513 266.480, 513 255.441 C 513 243.990, 512.652 238.097, 512 238.500 C 511.393 238.875, 510.993 237.423, 510.982 234.809 C 510.931 222.865, 505.830 196.979, 499.827 178.201 C 487.572 139.869, 468.334 107.844, 440.010 78.627 C 407.216 44.798, 369.931 22.283, 325.593 9.535 C 298.947 1.874, 264.224 -1.517, 235 0.689 M 236 22.065 C 197.577 25.648, 160.032 38.554, 128.509 59.015 L 118.518 65.500 125.009 66.055 C 128.579 66.360, 132.625 67.133, 134 67.771 C 135.375 68.409, 138.385 69.407, 140.690 69.988 C 143.399 70.671, 145.101 71.743, 145.507 73.022 C 146.058 74.759, 147.041 75, 153.567 75 C 157.655 75, 160.993 74.662, 160.985 74.250 C 160.932 71.682, 158.650 70.573, 152.630 70.189 C 146.724 69.813, 146.225 69.613, 147.220 68.020 C 149.295 64.697, 147.521 63.125, 141.336 62.801 L 135.570 62.500 141.973 57.750 C 148.199 53.131, 148.570 53, 155.438 53.012 C 162.415 53.025, 162.528 53.067, 164.784 56.550 C 168.876 62.866, 176.420 63.924, 181.595 58.908 C 184.322 56.265, 185.092 55.979, 186.893 56.943 C 188.052 57.563, 189 58.409, 189 58.823 C 189 59.238, 187.002 61.247, 184.560 63.288 C 180.691 66.522, 179.452 67, 174.935 67 L 169.750 67 170.375 70.125 C 170.719 71.844, 171 73.644, 171 74.125 C 171 74.606, 174.120 75, 177.933 75 C 183.908 75, 184.950 74.733, 185.479 73.066 C 185.947 71.593, 187.392 70.970, 191.546 70.451 C 196.733 69.803, 197 69.629, 197 66.885 C 197 64.474, 196.589 64, 194.500 64 C 191.436 64, 191.215 61.785, 194 59 C 195.686 57.314, 197.333 57, 204.500 57 C 209.175 57, 213 57.403, 213 57.896 C 213 58.389, 211.425 60.176, 209.500 61.866 C 203.938 66.749, 204.918 71.250, 211.750 72.201 L 215 72.654 215 67.369 C 215 62.206, 215.098 62.027, 219.264 59.585 C 222.402 57.747, 225.640 56.914, 231.514 56.435 C 239.457 55.787, 239.557 55.808, 250.250 60.535 L 261 65.288 261 69.598 C 261 73.733, 261.143 73.936, 264.500 74.566 C 268.536 75.323, 268.474 75.182, 266.474 79.050 C 265.090 81.726, 264.480 82, 259.894 82 C 254.936 82, 254.809 82.076, 253.288 85.949 C 251.521 90.446, 252.460 90.415, 237.030 86.495 L 228.500 84.328 236.674 80.191 C 241.170 77.915, 245.116 75.621, 245.443 75.092 C 245.770 74.563, 244.567 73.030, 242.769 71.684 C 239.650 69.350, 239.156 69.282, 232 70.210 C 225.485 71.054, 224.035 71.630, 220.958 74.591 C 218.429 77.025, 216.498 78, 214.208 78 C 210.705 78, 210.178 79.035, 212.500 81.357 C 214.576 83.433, 214.425 83.748, 211 84.500 C 209.350 84.862, 208 85.750, 208 86.472 C 208 87.823, 205.888 89, 203.464 89 C 202.687 89, 201.806 87.484, 201.436 85.508 C 200.842 82.343, 200.534 82.075, 198.140 82.642 C 193.477 83.745, 189.127 85.808, 179.409 91.528 C 172.210 95.765, 170.025 97.532, 170.404 98.811 C 170.680 99.740, 171.190 101.695, 171.537 103.156 C 172.311 106.404, 178.385 109.670, 185.250 110.529 L 190 111.123 190 117.631 C 190 123.808, 190.114 124.123, 192.250 123.820 C 193.772 123.603, 195.365 121.882, 197.173 118.500 C 199.551 114.052, 200.490 113.266, 205.673 111.379 L 211.500 109.259 211.789 101.238 L 212.077 93.218 215.867 90.592 L 219.656 87.966 227.578 89.786 L 235.500 91.605 235.457 96.803 C 235.418 101.588, 235.599 102, 237.741 102 C 239.020 102, 242.287 100.875, 245 99.500 C 247.713 98.125, 250.398 97, 250.967 97 C 251.562 97, 252 99.516, 252 102.929 C 252 109.316, 252.890 110.857, 258.147 113.576 C 260.861 114.980, 261.080 115.486, 260.803 119.719 C 260.522 124.002, 260.250 124.416, 257 125.504 C 251.753 127.262, 252.070 129.347, 257.956 131.793 C 262.457 133.663, 263 134.218, 263 136.945 C 263 140.594, 262.016 140.726, 253.604 138.208 C 246.859 136.189, 244.460 132.979, 248.029 130.750 C 250.455 129.234, 250.700 125, 248.360 125 C 247.458 125, 246.221 125.672, 245.610 126.493 C 245 127.314, 242.329 128.387, 239.676 128.877 C 235.174 129.710, 234.781 129.613, 233.788 127.434 C 231.631 122.700, 223 123.534, 223 128.476 C 223 130.475, 223.669 131.019, 226.951 131.691 C 230.885 132.496, 230.894 132.510, 229.160 134.799 C 227.516 136.968, 227.253 137.013, 224.516 135.593 C 221.662 134.112, 221.532 134.164, 216.570 138.794 C 213.796 141.382, 211.624 143.950, 211.743 144.500 C 211.863 145.050, 208.551 147.300, 204.383 149.500 C 194.795 154.562, 182 167.456, 182 172.057 C 182 174.575, 180.870 175.711, 173.250 180.857 C 160.289 189.609, 159.759 190.340, 160.164 198.908 C 160.349 202.811, 160.175 206.003, 159.777 206.002 C 159.379 206.001, 157.016 205.010, 154.527 203.801 C 150.338 201.765, 150 201.318, 150 197.801 L 150 194 136.019 194 C 122.280 194, 121.924 194.056, 115.483 197.232 C 109.852 200.009, 108.497 201.230, 105.860 205.902 C 104.172 208.892, 102.144 213.518, 101.354 216.180 C 100.033 220.628, 100.072 221.375, 101.836 225.361 C 103.383 228.860, 104.384 229.827, 107.003 230.351 C 113.549 231.660, 115.681 231.045, 123.824 225.500 C 128.266 222.475, 132.320 220, 132.833 220 C 135.007 220, 134.738 225.583, 132.337 230.322 C 130.978 233.004, 130.008 235.338, 130.183 235.507 C 130.357 235.677, 133.161 236.305, 136.413 236.904 C 139.665 237.503, 142.493 238.159, 142.697 238.363 C 142.901 238.567, 143.346 243.303, 143.686 248.886 C 144.387 260.386, 143.064 259.058, 155.817 261.057 L 163.134 262.203 166.817 257.884 C 175.710 247.453, 173.799 248.465, 181.879 249.909 C 188.156 251.031, 189.364 251.611, 191.640 254.595 C 194.151 257.887, 194.466 258, 201.119 258 C 207.333 258, 208 257.806, 208 256 C 208 251.055, 215.151 255.625, 220.604 264.054 L 225.097 271 232.463 271 L 239.829 271 242.409 275.616 C 243.865 278.221, 245.318 282.872, 245.744 286.294 L 246.500 292.356 255 295.677 C 262.606 298.648, 264.551 298.997, 273.500 298.999 L 283.500 299.002 286.232 303.866 C 288.575 308.038, 289.621 308.914, 293.584 310.024 L 298.205 311.317 297.558 315.409 C 297.143 318.031, 295.350 321.514, 292.566 325.109 C 286.398 333.072, 286.384 333.112, 285.004 347.730 L 283.754 360.960 279.459 364.480 C 275.453 367.762, 274.691 368, 268.163 368 C 261.200 368, 261.151 368.019, 258.930 371.613 C 256.724 375.183, 256.717 375.315, 258.325 382.728 L 259.953 390.230 252.040 400.449 C 247.687 406.069, 243.359 412.277, 242.421 414.243 C 241.033 417.155, 239.298 418.484, 233.064 421.409 C 228.855 423.384, 224.230 425, 222.787 425 C 218.920 425, 217 425.989, 217 427.982 C 217 429.146, 218.024 429.955, 220 430.350 C 224.015 431.153, 224.018 434.650, 220.008 438.493 C 217.214 441.169, 217.123 441.479, 218.645 443.160 C 219.541 444.151, 221.788 445.245, 223.637 445.592 C 227.494 446.315, 227.826 447.884, 225.758 455.613 L 224.517 460.255 229.740 464.878 C 233.945 468.600, 234.846 469.938, 234.365 471.750 C 233.815 473.819, 233.192 473.999, 226.633 473.989 L 219.500 473.978 212.307 467.458 C 206.987 462.635, 203.762 458.575, 199.918 451.856 L 194.721 442.774 195.382 433.372 L 196.042 423.970 191.971 418.578 L 187.900 413.186 189.447 404.343 C 191.366 393.370, 191.421 394.199, 188.750 393.820 C 186.511 393.502, 186.499 393.397, 186.206 373 L 185.913 352.500 179.921 348.139 C 176.625 345.741, 171.811 343.021, 169.224 342.095 C 165.020 340.591, 164.457 340.026, 163.929 336.781 C 163.523 334.280, 160.903 330.093, 155.510 323.325 C 151.203 317.921, 147.287 312.985, 146.806 312.356 C 146.301 311.695, 146.444 306.601, 147.144 300.301 L 148.358 289.390 154.194 285.445 L 160.031 281.500 159.404 275 C 159.058 271.425, 158.387 268.083, 157.912 267.574 C 157.437 267.065, 153.398 266.380, 148.938 266.052 L 140.828 265.456 133.164 257.266 C 126.512 250.157, 124.783 248.873, 120.068 247.538 C 117.081 246.692, 113.560 246, 112.243 246 C 110.142 246, 109.889 245.602, 110.175 242.750 C 110.485 239.648, 110.329 239.486, 106.750 239.190 C 103.792 238.945, 103 239.231, 103 240.547 C 103 241.624, 102.465 242.009, 101.488 241.634 C 100.657 241.315, 95.965 240.112, 91.063 238.961 L 82.149 236.868 78.008 230.513 C 73.914 224.229, 73.886 224.122, 75.484 221.030 L 77.101 217.904 70.588 208.202 C 65.085 200.005, 63.898 197.453, 62.935 191.750 C 61.898 185.611, 61.578 185, 59.397 185 C 58.079 185, 57.009 185.338, 57.020 185.750 C 57.206 192.691, 59.263 199.288, 63.135 205.361 C 66.119 210.041, 67.380 213.024, 67.146 214.844 C 66.703 218.295, 66.799 218.241, 62.572 217.447 C 59.305 216.835, 58.438 215.918, 53.970 208.352 C 49.003 199.944, 49 199.932, 49 190.956 L 49 181.974 44.543 179.809 L 40.086 177.643 39.793 171.572 L 39.500 165.500 36.272 173.660 C 19.590 215.835, 16.755 267.208, 28.549 313.643 C 39.155 355.402, 59.196 390.371, 90.412 421.588 C 110.649 441.824, 129.405 455.325, 153.500 467.002 C 227.596 502.909, 314.672 497.700, 382.956 453.278 C 398.474 443.182, 407.378 435.803, 423 420.090 L 438.500 404.500 434.250 404.193 L 430 403.885 430 395.867 C 430 387.896, 429.973 387.813, 425.500 382 L 421 376.152 421 366.947 C 421 357.832, 420.966 357.705, 417.500 353.868 C 412.796 348.661, 412.888 345.167, 418 335 C 420.200 330.624, 422 326.632, 422 326.128 C 422 325.623, 418.390 318.909, 413.979 311.207 L 405.957 297.203 407.004 287.961 C 407.580 282.877, 407.809 278.475, 407.512 278.179 C 407.215 277.882, 403.974 277.278, 400.309 276.837 C 395.244 276.227, 393.015 275.431, 391.018 273.517 C 387.523 270.168, 378.340 269.862, 375.500 273 C 373.936 274.728, 372.420 275, 364.345 275 C 358.782 275, 355 275.405, 355 276 C 355 276.550, 352.768 277, 350.041 277 L 345.082 277 333.418 263.750 L 321.754 250.500 322.410 241.071 C 322.951 233.284, 323.408 231.403, 325.033 230.265 C 326.341 229.348, 327 227.734, 327 225.443 C 327 222.484, 326.666 222, 324.622 222 C 322.690 222, 322.056 221.262, 321.246 218.073 L 320.250 214.146 333.125 204.987 L 346 195.829 346 189.101 L 346 182.372 352.494 178.763 C 358.741 175.290, 359.270 175.175, 366.419 175.715 C 373.119 176.222, 374.277 176.029, 378.175 173.755 C 381.620 171.747, 384.434 171.100, 392 170.576 C 397.225 170.214, 403.188 169.672, 405.250 169.371 L 409 168.824 409 175.720 L 409 182.616 419.694 185.387 C 425.576 186.911, 431.301 188.798, 432.417 189.579 C 436.210 192.236, 438 191.425, 438 187.050 L 438 183.100 443.750 182.800 C 449.115 182.520, 449.914 182.787, 455.681 186.788 L 461.862 191.077 471.181 190.788 C 480.453 190.501, 480.499 190.487, 480.253 188 C 480.118 186.625, 478.821 182.200, 477.371 178.166 L 474.736 170.831 468.923 171.166 C 463.453 171.480, 462.902 171.298, 459.556 168.054 C 456.736 165.321, 456 163.838, 456 160.886 C 456 154.696, 455.356 153.889, 451.968 155.833 C 449.769 157.095, 448.804 158.680, 447.912 162.495 C 446.028 170.557, 445.853 170.620, 440.683 165.092 C 436.627 160.756, 435.997 159.511, 435.977 155.793 C 435.955 151.825, 435.506 151.102, 430.055 146.250 C 424.615 141.409, 423.768 141, 419.175 141 L 414.193 141 415.936 145.590 C 417.392 149.427, 418.567 150.666, 423.089 153.134 C 429.527 156.649, 432.107 159.015, 430.250 159.703 C 429.551 159.962, 429 161.840, 429 163.962 C 429 167.262, 428.596 167.925, 425.906 169.039 C 422.147 170.596, 418.390 169.501, 416.219 166.215 C 414.717 163.941, 414.729 163.933, 418.653 164.561 C 421.668 165.043, 422.923 164.797, 423.984 163.519 C 424.904 162.411, 425.020 161.620, 424.330 161.174 C 410.699 152.356, 406.895 149.430, 406.377 147.364 C 405.606 144.294, 404.968 144.381, 401.472 148.029 C 398.886 150.729, 398.125 150.991, 394.471 150.443 L 390.371 149.829 384.686 157.383 C 381.559 161.537, 379 165.401, 379 165.968 C 379 166.536, 378.100 167.900, 377 169 C 373.326 172.674, 352.026 171.161, 351.994 167.224 C 351.991 166.826, 351.565 163.912, 351.047 160.749 C 350.421 156.932, 350.454 153.995, 351.145 152.013 C 352.176 149.058, 352.855 148.716, 361.685 146.716 C 362.887 146.444, 366.600 146.790, 369.935 147.487 C 374.350 148.408, 376.004 148.446, 376.014 147.626 C 376.021 147.007, 376.283 145.546, 376.596 144.379 C 377.047 142.702, 376.617 142.121, 374.543 141.600 C 372.142 140.997, 371.973 140.628, 372.547 137.221 C 373.731 130.196, 373.698 130.231, 379.917 129.510 C 385.698 128.839, 385.804 128.767, 390.269 122.561 C 394.230 117.056, 395.280 116.211, 398.879 115.635 C 401.133 115.275, 405.458 115.271, 408.489 115.628 L 413.999 116.275 413.359 111.388 C 413.007 108.699, 412.541 106.296, 412.323 106.048 C 412.106 105.799, 409.898 106.348, 407.416 107.268 L 402.903 108.940 400.987 104.470 C 399.470 100.930, 398.566 100, 396.643 100 C 394.215 100, 393 98.367, 393 95.105 C 393 92.590, 397.791 88.590, 403.169 86.613 C 405.737 85.669, 408.562 83.792, 409.446 82.442 C 411.005 80.063, 410.943 79.889, 407.450 76.822 C 397.021 67.665, 379.750 56.010, 365 48.175 C 326.486 27.718, 278.827 18.072, 236 22.065 M 123 77 C 123 77.550, 121.875 78, 120.500 78 C 118.500 78, 118 78.500, 118 80.500 C 118 82.855, 118.310 83, 123.345 83 C 128.954 83, 132 81.125, 132 77.671 C 132 76.357, 131.038 76, 127.500 76 C 125.025 76, 123 76.450, 123 77 M 122.727 90.308 C 117.238 91.844, 118.720 93.500, 125.583 93.500 C 130.958 93.500, 131.529 93.294, 131.820 91.250 C 132.089 89.350, 131.700 89.020, 129.320 89.126 C 127.769 89.196, 124.802 89.728, 122.727 90.308 M 427 101.329 L 427 106.658 421.963 109.017 C 414.313 112.600, 415.482 114.428, 425.656 114.789 L 433.789 115.077 435.983 111.527 L 438.178 107.977 432.990 101.988 C 430.137 98.695, 427.622 96, 427.401 96 C 427.180 96, 427 98.398, 427 101.329 M 370.256 100.054 C 362.544 101.697, 361.791 106.384, 368.500 111 C 373.290 114.296, 374.632 118, 371.035 118 C 368.717 118, 367 120.793, 367 124.563 L 367 127.257 374.954 126.797 C 381.838 126.398, 383.178 126.011, 384.920 123.918 C 387.536 120.776, 387.492 120.138, 384.588 119.034 C 381.363 117.807, 376.331 110.318, 375.452 105.437 C 374.433 99.775, 373.944 99.268, 370.256 100.054 M 358.252 110.706 C 355.717 111.194, 351 118.435, 351 121.838 C 351 125.323, 356.074 124.662, 361.998 120.406 C 367.446 116.492, 368.611 112.933, 365.066 111.035 C 363.096 109.981, 362.230 109.939, 358.252 110.706 M 142.500 115.153 C 141.400 115.781, 140.368 116.398, 140.207 116.524 C 140.046 116.649, 140.694 118.386, 141.646 120.384 C 143.035 123.297, 143.785 123.893, 145.439 123.400 C 148.515 122.483, 149.839 120.838, 150.187 117.500 C 150.468 114.807, 150.193 114.475, 147.500 114.255 C 145.850 114.121, 143.600 114.524, 142.500 115.153 M 56.702 131.750 C 56.473 132.162, 55.057 134.750, 53.556 137.500 L 50.826 142.500 54.413 138.583 C 56.386 136.429, 58 133.842, 58 132.833 C 58 130.932, 57.423 130.450, 56.702 131.750 M 157.500 132.685 C 150.522 136.419, 152.277 138.216, 163.478 138.804 L 172 139.251 172 136.625 C 172 135.181, 171.550 134, 171 134 C 170.450 134, 170 133.325, 170 132.500 C 170 130.426, 161.486 130.553, 157.500 132.685 M 175 136 C 175 137.381, 175.667 138, 177.155 138 C 179.247 138, 179.257 137.941, 177.500 136 C 176.505 134.900, 175.535 134, 175.345 134 C 175.155 134, 175 134.900, 175 136 M 236 140 C 235.246 141.409, 233.906 142, 231.465 142 C 228.707 142, 228 142.394, 228 143.933 C 228 145.009, 228.918 146.156, 230.072 146.523 C 232.985 147.448, 237 146.250, 237 144.456 C 237 143.628, 238.125 142.523, 239.500 142 C 242.351 140.916, 242.735 139.496, 240.418 138.607 C 237.890 137.637, 237.138 137.874, 236 140 M 184.419 141.131 C 183.567 142.510, 185.524 144.412, 186.913 143.554 C 187.511 143.184, 188 142.507, 188 142.048 C 188 140.718, 185.129 139.982, 184.419 141.131 M 155.816 143.750 C 152.131 147.711, 151.410 151.614, 154.098 153.053 C 155.262 153.676, 156.538 153.806, 156.934 153.343 C 158.855 151.092, 165 142.158, 165 141.616 C 165 141.277, 163.509 141, 161.687 141 C 159.360 141, 157.613 141.818, 155.816 143.750 M 171 144.500 C 171 147.187, 171.413 148, 172.777 148 C 175.471 148, 179 145.132, 179 142.943 C 179 141.343, 178.294 141, 175 141 C 171.095 141, 171 141.083, 171 144.500 M 220.176 143.224 C 218.044 145.356, 218.776 148, 221.500 148 C 223.279 148, 224 147.459, 224 146.122 C 224 143.462, 221.689 141.711, 220.176 143.224 M 181 148.233 C 181 151.492, 182.803 153, 186.700 153 C 189.513 153, 190 152.647, 190 150.608 C 190 148.825, 189.301 148.050, 187.250 147.561 C 185.738 147.200, 183.713 146.671, 182.750 146.385 C 181.430 145.993, 181 146.447, 181 148.233 M 172.750 150.689 C 171.787 150.941, 171 151.564, 171 152.073 C 171 152.583, 170.152 153, 169.117 153 C 167.902 153, 167.064 153.887, 166.755 155.500 C 166.315 157.803, 166.569 158, 169.984 158 C 174.139 158, 177 155.623, 177 152.171 C 177 150.039, 176.245 149.776, 172.750 150.689 M 464 155.500 C 464 160.944, 464.030 161, 467 161 C 468.650 161, 470 160.562, 470 160.027 C 470 158.385, 465.652 150, 464.801 150 C 464.360 150, 464 152.475, 464 155.500 M 0.413 256.500 C 0.414 266.400, 0.564 270.315, 0.746 265.199 C 0.928 260.084, 0.927 251.984, 0.744 247.199 C 0.561 242.415, 0.412 246.600, 0.413 256.500" stroke="none" fill="black" fill-rule="evenodd"/>
</svg>